HIERARCHY
ROOT Hips
{
	OFFSET 0.000000 0.000000 0.000000 
	CHANNELS 6 Xposition Yposition Zposition Zrotation Yrotation Xrotation
	JOINT LeftUpLeg
	{
		OFFSET 1.363060 -1.794630 0.839290 
		CHANNELS 3 Zrotation Yrotation Xrotation
		JOINT LeftLeg
		{
			OFFSET 2.448110 -6.726130 0.000000 
			CHANNELS 3 Zrotation Yrotation Xrotation
			JOINT LeftFoot
			{
				OFFSET 2.562200 -7.039590 0.000000 
				CHANNELS 3 Zrotation Yrotation Xrotation
				JOINT LeftToeBase
				{
					OFFSET 0.157640 -0.433110 2.322550 
					CHANNELS 3 Zrotation Yrotation Xrotation
					End Site
					{
						OFFSET 0.000000 0.000000 0.000000 
					}
				}
			}
		}
	}
	JOINT RightUpLeg
	{
		OFFSET -1.305520 -1.794630 0.839290 
		CHANNELS 3 Zrotation Yrotation Xrotation
		JOINT RightLeg
		{
			OFFSET -2.542530 -6.985550 0.000000 
			CHANNELS 3 Zrotation Yrotation Xrotation
			JOINT RightFoot
			{
				OFFSET -2.568260 -7.056230 0.000000 
				CHANNELS 3 Zrotation Yrotation Xrotation
				JOINT RightToeBase
				{
					OFFSET -0.164730 -0.452590 2.363150 
					CHANNELS 3 Zrotation Yrotation Xrotation
					End Site
					{
						OFFSET 0.000000 0.000000 0.000000 
					}
				}
			}
		}
	}
	JOINT Spine
	{
		OFFSET 0.028270 2.035590 -0.193380 
		CHANNELS 3 Zrotation Yrotation Xrotation
		JOINT Spine1
		{
			OFFSET 0.056720 2.048850 -0.042750 
			CHANNELS 3 Zrotation Yrotation Xrotation
			JOINT Neck1
			{
				OFFSET -0.054170 1.746240 0.172020 
				CHANNELS 3 Zrotation Yrotation Xrotation
				JOINT Head
				{
					OFFSET 0.104070 1.761360 -0.123970 
					CHANNELS 3 Zrotation Yrotation Xrotation
					End Site
					{
						OFFSET 0.000000 0.000000 0.000000 
					}
				}
			}
			JOINT LeftArm
			{
				OFFSET 3.362410 1.200890 -0.311210 
				CHANNELS 3 Zrotation Yrotation Xrotation
				JOINT LeftForeArm
				{
					OFFSET 4.983000 -0.000000 -0.000000 
					CHANNELS 3 Zrotation Yrotation Xrotation
					JOINT LeftHand
					{
						OFFSET 3.483560 -0.000000 -0.000000 
						CHANNELS 3 Zrotation Yrotation Xrotation
						JOINT LeftHandIndex1
						{
							OFFSET 0.715260 -0.000000 -0.000000 
							CHANNELS 3 Zrotation Yrotation Xrotation
							End Site
							{
								OFFSET 0.000000 0.000000 0.000000 
							}
						}
					}
				}
			}
			JOINT RightArm
			{
				OFFSET -3.136600 1.374050 -0.404650 
				CHANNELS 3 Zrotation Yrotation Xrotation
				JOINT RightForeArm
				{
					OFFSET -5.241900 -0.000000 -0.000000 
					CHANNELS 3 Zrotation Yrotation Xrotation
					JOINT RightHand
					{
						OFFSET -3.444170 -0.000000 -0.000000 
						CHANNELS 3 Zrotation Yrotation Xrotation
						JOINT RightHandIndex1
						{
							OFFSET -0.622530 -0.000000 -0.000000 
							CHANNELS 3 Zrotation Yrotation Xrotation
							End Site
							{
								OFFSET 0.000000 0.000000 0.000000 
							}
						}
					}
				}
			}
		}
	}
}
MOTION
Frames: 13
Frame Time: 0.041667
3.004548 17.766902 4.618959 -111.977169 -80.587534 120.250404 -1.918942 -9.775181 -27.048518 -0.392259 3.700809 8.855637 -2.114465 12.460292 3.042088 0.603500 -4.972800 -13.831000 31.790961 1.702970 4.555757 -0.405812 -5.937953 15.679601 -0.084586 -1.951677 -7.742775 -0.015800 -0.812100 2.232000 2.532456 5.116437 -6.787730 1.269078 2.194871 -4.525084 9.801475 0.677655 7.214759 2.900000 0.883300 5.886000 -32.544895 -16.275222 42.543107 79.662348 -60.946400 -46.163586 1.071854 1.378330 22.290657 -7.125000 0.000000 0.000000 21.126911 41.755382 36.091620 -85.126177 59.762164 -57.071669 -1.385271 0.541427 22.703802 7.125000 0.000000 0.000000 
2.853403 17.749942 4.626542 -112.525779 -80.396247 120.859737 -2.024763 -9.685535 -27.294057 -0.378924 3.793878 9.120240 -2.051891 12.178498 3.001492 0.611900 -5.006800 -13.928000 31.843991 1.637813 4.847294 -0.438638 -6.043158 15.991508 -0.132309 -1.661153 -7.750765 -0.007100 -0.545000 1.497700 2.484935 5.323221 -6.796778 1.074467 2.290376 -4.486631 9.780531 0.727320 7.322487 2.928000 0.907900 5.948900 -30.550204 -16.278618 46.954045 85.316109 -60.615880 -50.687429 1.285648 1.144351 30.045406 -7.125000 0.000000 0.000000 18.747440 41.840930 38.046909 -85.770493 59.680533 -57.593149 -1.401723 0.687993 25.137780 7.125000 0.000000 0.000000 
2.700163 17.733779 4.634024 -113.007499 -80.220519 121.373783 -2.192445 -9.532708 -27.533434 -0.352654 3.957151 9.577184 -1.990132 11.906586 3.003515 0.619700 -5.037900 -14.016800 31.884668 1.574798 5.143424 -0.478007 -6.169010 16.362125 -0.177199 -1.381787 -7.738883 -0.001800 -0.272400 0.748300 2.440200 5.501796 -6.789938 0.908879 2.376117 -4.397439 9.770662 0.683024 7.413097 2.962100 0.885600 6.013700 -28.622813 -16.469824 50.883377 90.803899 -59.964873 -55.369159 1.467364 0.864528 38.000715 -7.125000 0.000000 0.000000 16.575415 41.987768 39.683158 -86.340003 59.602720 -58.051387 -1.391781 0.816795 26.826018 7.125000 0.000000 0.000000 
2.544428 17.718515 4.641307 -113.451058 -80.067920 121.819571 -2.413881 -9.363371 -27.731919 -0.315042 4.174993 10.183246 -1.933561 11.658871 3.018416 0.624700 -5.057800 -14.073500 31.902619 1.513350 5.437261 -0.525616 -6.319665 16.804598 -0.219432 -1.111176 -7.702139 -0.000000 0.007200 -0.019900 2.396557 5.644216 -6.769696 0.767335 2.447063 -4.278592 9.754935 0.554913 7.472746 2.989900 0.820200 6.070700 -26.829684 -16.749809 54.243383 95.993217 -59.118526 -60.086512 1.581884 0.553796 45.708959 -7.125000 0.000000 0.000000 14.677300 42.164555 41.005518 -86.611475 59.523030 -58.256511 -1.364705 0.923636 27.861082 7.125000 0.000000 0.000000 
2.386399 17.703850 4.647892 -113.851261 -79.943932 122.196377 -2.676179 -9.209747 -27.870255 -0.267685 4.431135 10.894983 -1.879037 11.423983 3.052839 0.626800 -5.066100 -14.097100 31.896941 1.458686 5.718185 -0.583262 -6.499394 17.331187 -0.257547 -0.857368 -7.639080 -0.002300 0.309500 -0.850500 2.355046 5.741302 -6.734300 0.655526 2.498775 -4.132494 9.725806 0.350832 7.487770 3.005300 0.715700 6.113600 -25.242970 -17.032068 56.963958 100.804080 -58.203236 -64.681504 1.615475 0.243277 52.662762 -7.125000 0.000000 0.000000 13.074666 42.337724 41.998958 -86.294462 59.432092 -57.962293 -1.335338 1.008820 28.539778 7.125000 0.000000 0.000000 
2.225976 17.689982 4.653778 -114.252709 -79.856155 122.556461 -2.968084 -9.109968 -27.934422 -0.213263 4.707240 11.660859 -1.817360 11.178851 3.191338 0.616200 -5.023700 -13.976300 31.853858 1.413997 5.967372 -0.653124 -6.712481 17.955828 -0.291791 -0.618981 -7.545892 -0.009000 0.613200 -1.684900 2.311117 5.795537 -6.691780 0.565421 2.530494 -3.986833 9.694945 0.069995 7.453099 3.011400 0.571900 6.138300 -23.901192 -17.241862 59.042788 105.144613 -57.314895 -68.948572 1.582596 -0.031511 58.466026 -7.125000 0.000000 0.000000 11.803779 42.467079 42.661249 -85.182172 59.316290 -56.990293 -1.316473 1.073104 29.140336 7.125000 0.000000 0.000000 
2.063657 17.676713 4.659165 -114.640882 -79.799966 122.890311 -3.265284 -9.091223 -27.913387 -0.154579 4.986045 12.431660 -1.749398 10.953140 3.549674 0.582800 -4.888400 -13.590600 31.777030 1.371177 6.172402 -0.737248 -6.960608 18.684971 -0.321552 -0.395847 -7.408202 -0.021800 0.953600 -2.621100 2.264523 5.811436 -6.645997 0.492757 2.542742 -3.854574 9.689170 -0.288444 7.368626 3.022700 0.389300 6.145600 -22.823242 -17.314170 60.505972 108.984639 -56.498765 -72.761516 1.514869 -0.244130 62.799816 -7.125000 0.000000 0.000000 10.864779 42.521183 42.978824 -83.233102 59.151770 -55.299317 -1.314961 1.113227 29.906763 7.125000 0.000000 0.000000 
1.899442 17.664243 4.663954 -115.011199 -79.784235 123.195331 -3.556645 -9.188828 -27.800913 -0.093582 5.256060 13.170439 -1.692152 10.835249 4.153352 0.527100 -4.652600 -12.920300 31.660794 1.334505 6.322450 -0.838020 -7.246137 19.527393 -0.346115 -0.191821 -7.215623 -0.042000 1.323500 -3.639300 2.215734 5.790521 -6.600260 0.444002 2.536675 -3.742340 9.705483 -0.720218 7.220670 3.035700 0.169100 6.125800 -22.023834 -17.217218 61.365125 112.277006 -55.777817 -76.026138 1.444424 -0.388660 65.467050 -7.125000 0.000000 0.000000 10.262720 42.490246 42.947630 -80.437850 58.899198 -52.877799 -1.332594 1.126200 31.139351 7.125000 0.000000 0.000000 
1.734529 17.652770 4.668842 -115.402358 -79.813950 123.517628 -3.845390 -9.412772 -27.621261 -0.030711 5.514335 13.866032 -1.657347 10.892427 4.995128 0.469800 -4.396000 -12.193400 31.490747 1.304910 6.402340 -0.957675 -7.569896 20.488280 -0.364074 -0.010106 -6.944333 -0.070700 1.715700 -4.720700 2.161136 5.742924 -6.558830 0.411472 2.516171 -3.660956 9.808512 -1.236318 7.045233 3.089400 -0.090800 6.103200 -21.503402 -16.927376 61.663553 115.050962 -55.152213 -78.745207 1.391309 -0.464493 66.475766 -7.125000 0.000000 0.000000 10.001290 42.382686 42.533487 -77.189000 58.550577 -50.054658 -1.346789 1.104439 32.482343 7.125000 0.000000 0.000000 
1.568619 17.642793 4.673531 -115.823594 -79.904229 123.857108 -4.159289 -9.728767 -27.396923 0.035476 5.769279 14.545223 -1.639657 11.078829 5.928527 0.406900 -4.095100 -11.344300 31.255449 1.283768 6.407414 -1.100144 -7.935317 21.581863 -0.373609 0.140844 -6.569722 -0.107400 2.112900 -5.817800 2.101906 5.665739 -6.523360 0.406349 2.481095 -3.620262 9.968979 -1.820190 6.829807 3.164000 -0.384400 6.062300 -21.280217 -16.428981 61.383223 117.280821 -54.635981 -80.909970 1.362231 -0.484965 66.057930 -7.125000 0.000000 0.000000 10.096205 42.239243 41.729235 -73.662464 58.097482 -46.992267 -1.348847 1.059813 33.764751 7.125000 0.000000 0.000000 
1.402409 17.635011 4.677722 -116.266506 -80.071098 124.204337 -4.527233 -10.096495 -27.156155 0.104505 6.022117 15.216339 -1.630077 11.324720 6.828653 0.344500 -3.771200 -10.433900 30.933562 1.245972 6.318351 -1.268621 -8.342952 22.813044 -0.373515 0.253963 -6.066681 -0.149100 2.488500 -6.857800 2.039007 5.555351 -6.486692 0.439959 2.432005 -3.596244 10.178701 -2.465661 6.591210 3.256300 -0.708000 6.013700 -21.382053 -15.755987 60.466474 118.969413 -54.240665 -82.548525 1.353174 -0.463769 64.616212 -7.125000 0.000000 0.000000 10.508258 42.094800 40.519288 -70.035724 57.543713 -43.854865 -1.337655 0.998416 34.803504 7.125000 0.000000 0.000000 
1.236498 17.629923 4.681413 -116.754164 -80.319168 124.581575 -4.982405 -10.433585 -26.935057 0.177652 6.281161 15.912051 -1.606705 11.489473 7.597916 0.283300 -3.422900 -9.458400 30.510669 1.172723 6.113725 -1.467713 -8.794715 24.193553 -0.363220 0.323601 -5.408791 -0.192200 2.823100 -7.786500 1.971682 5.418432 -6.448680 0.510660 2.371968 -3.588531 10.451732 -3.157504 6.352338 3.378100 -1.053600 5.968800 -21.833777 -14.970741 58.855890 120.079891 -53.989582 -83.648140 1.354755 -0.414564 62.662042 -7.125000 0.000000 0.000000 11.213278 41.982335 38.912385 -66.437626 56.898630 -40.763103 -1.310534 0.927693 35.359529 7.125000 0.000000 0.000000 
1.070887 17.627629 4.684406 -117.239337 -80.630299 124.944603 -5.523044 -10.662787 -26.751508 0.254556 6.547912 16.646323 -1.551398 11.450424 8.174697 0.222900 -3.038900 -8.387100 30.002966 1.043565 5.777758 -1.700996 -9.288626 25.723147 -0.341067 0.333355 -4.562096 -0.233500 3.110300 -8.585800 1.904667 5.259066 -6.404774 0.619948 2.303550 -3.578038 10.777080 -3.890287 6.138400 3.527000 -1.417800 5.942800 -22.655433 -14.156595 56.530201 120.599924 -53.899714 -84.216889 1.358808 -0.348492 60.606166 -7.125000 0.000000 0.000000 12.159605 41.931053 36.918204 -62.929468 56.167935 -37.776952 -1.269639 0.851568 35.313140 7.125000 0.000000 0.000000 
